<svg id="svg" xmlns="http://www.w3.org/2000/svg" xmlns:xlink="http://www.w3.org/1999/xlink" width="400" height="400" viewBox="0, 0, 400,400" version="1.1"><g id="svgg"><path id="path1" d="M175.404 14.794 C 175.252 15.040,175.655 15.094,176.480 14.937 C 178.249 14.600,178.401 14.400,176.890 14.400 C 176.207 14.400,175.538 14.577,175.404 14.794 M156.000 18.288 C 154.533 18.551,154.162 19.096,155.592 18.886 C 156.262 18.788,156.908 18.549,157.029 18.354 C 157.149 18.159,157.192 18.025,157.124 18.054 C 157.056 18.084,156.550 18.190,156.000 18.288 M186.224 68.213 C 185.796 68.536,185.627 68.800,185.847 68.800 C 186.067 68.800,186.596 68.536,187.024 68.213 C 187.451 67.890,187.620 67.625,187.400 67.625 C 187.180 67.625,186.651 67.890,186.224 68.213 M217.297 70.633 C 217.427 70.844,218.391 71.632,219.437 72.384 C 220.484 73.135,221.233 73.578,221.103 73.367 C 220.973 73.156,220.009 72.368,218.963 71.616 C 217.916 70.865,217.167 70.422,217.297 70.633 M179.300 72.233 C 178.585 72.797,178.000 73.423,178.000 73.625 C 178.000 73.827,178.315 73.734,178.700 73.418 C 179.085 73.102,179.850 72.479,180.400 72.035 C 180.950 71.590,181.220 71.223,181.000 71.218 C 180.780 71.213,180.015 71.670,179.300 72.233 M230.227 90.400 C 230.782 94.136,231.155 95.075,230.941 92.200 C 230.826 90.660,230.559 89.220,230.346 89.000 C 230.096 88.742,230.054 89.238,230.227 90.400 M168.369 93.900 C 168.352 94.285,168.296 95.466,168.245 96.523 C 168.194 97.581,168.298 98.537,168.476 98.647 C 168.654 98.757,168.800 97.577,168.800 96.024 C 168.800 93.591,168.458 91.904,168.369 93.900 M230.650 98.450 C 230.326 100.068,230.335 100.400,230.700 100.399 C 230.865 100.399,231.049 99.679,231.110 98.799 C 231.241 96.890,230.999 96.706,230.650 98.450 M230.233 101.809 C 229.899 103.141,230.082 103.402,230.678 102.446 C 230.925 102.051,230.987 101.502,230.816 101.226 C 230.606 100.886,230.418 101.075,230.233 101.809 M228.014 108.374 C 227.508 109.320,227.474 110.125,227.952 109.830 C 228.286 109.624,228.836 107.600,228.559 107.600 C 228.487 107.600,228.242 107.948,228.014 108.374 M82.413 110.300 C 82.420 110.465,82.708 110.960,83.054 111.400 C 83.673 112.187,83.678 112.186,83.415 111.303 L 83.148 110.406 110.674 110.300 L 138.200 110.194 110.300 110.097 C 94.955 110.044,82.406 110.135,82.413 110.300 M84.636 114.800 C 84.944 115.961,85.939 118.000,86.198 118.000 C 86.429 118.000,86.034 116.987,85.113 115.222 C 84.611 114.259,84.457 114.123,84.636 114.800 M258.818 116.366 C 258.573 116.825,258.539 117.200,258.743 117.200 C 259.154 117.200,259.722 115.988,259.442 115.708 C 259.344 115.611,259.064 115.907,258.818 116.366 M312.985 117.400 C 312.815 117.840,312.589 118.380,312.482 118.600 C 312.375 118.820,312.604 118.703,312.990 118.339 C 313.377 117.976,313.603 117.436,313.493 117.139 C 313.352 116.759,313.202 116.836,312.985 117.400 M311.755 120.212 C 311.390 120.769,311.193 121.326,311.316 121.450 C 311.440 121.573,311.829 121.118,312.181 120.437 C 312.952 118.946,312.679 118.802,311.755 120.212 M217.500 120.520 C 216.895 120.759,216.400 121.100,216.400 121.277 C 216.400 121.796,216.928 121.638,218.000 120.800 C 219.118 119.925,219.071 119.899,217.500 120.520 M310.449 123.052 C 309.768 124.546,310.192 124.700,310.928 123.225 C 311.264 122.551,311.401 122.000,311.234 122.000 C 311.066 122.000,310.713 122.473,310.449 123.052 M146.327 129.404 C 145.977 129.757,146.804 131.600,147.313 131.600 C 147.548 131.600,147.540 131.405,147.292 131.100 C 147.069 130.825,146.822 130.269,146.743 129.864 C 146.664 129.459,146.477 129.252,146.327 129.404 M175.000 130.800 C 174.841 131.057,176.329 131.200,179.176 131.200 C 181.859 131.200,183.600 131.043,183.600 130.800 C 183.600 130.559,181.941 130.400,179.424 130.400 C 177.071 130.400,175.139 130.575,175.000 130.800 M223.867 130.667 C 223.720 130.813,223.600 145.693,223.600 163.733 C 223.600 181.773,223.692 196.441,223.805 196.329 C 223.960 196.173,224.322 130.400,224.167 130.400 C 224.148 130.400,224.013 130.520,223.867 130.667 M193.872 131.100 C 199.192 131.163,208.012 131.163,213.472 131.100 C 218.933 131.037,214.580 130.985,203.800 130.985 C 193.020 130.985,188.553 131.037,193.872 131.100 M147.200 132.247 C 147.200 132.467,147.464 132.996,147.787 133.424 C 148.110 133.851,148.375 134.020,148.375 133.800 C 148.375 133.580,148.110 133.051,147.787 132.624 C 147.464 132.196,147.200 132.027,147.200 132.247 M306.000 133.800 C 305.717 134.141,305.576 134.509,305.686 134.619 C 305.796 134.729,306.117 134.541,306.400 134.200 C 306.683 133.859,306.824 133.491,306.714 133.381 C 306.604 133.271,306.283 133.459,306.000 133.800 M148.694 136.036 C 148.974 137.110,149.565 137.394,149.491 136.419 C 149.458 135.980,149.220 135.540,148.961 135.440 C 148.663 135.326,148.565 135.545,148.694 136.036 M250.692 136.242 C 250.531 136.402,250.400 136.809,250.400 137.147 C 250.400 137.597,250.518 137.642,250.845 137.315 C 251.090 137.070,251.221 136.663,251.137 136.410 C 251.052 136.157,250.852 136.081,250.692 136.242 M99.666 149.362 C 100.153 150.363,100.622 151.111,100.710 151.024 C 100.924 150.809,99.595 148.044,99.142 147.764 C 98.944 147.642,99.180 148.361,99.666 149.362 M298.820 149.910 C 298.527 150.730,298.203 151.625,298.101 151.900 C 297.998 152.175,298.076 152.400,298.274 152.400 C 298.627 152.400,299.757 148.824,299.490 148.556 C 299.415 148.481,299.113 149.091,298.820 149.910 M101.068 152.306 C 101.194 152.805,101.455 153.310,101.648 153.430 C 102.196 153.768,102.062 153.036,101.420 152.176 C 100.860 151.427,100.848 151.432,101.068 152.306 M158.467 159.220 C 158.701 159.892,158.967 160.367,159.057 160.276 C 159.256 160.078,158.501 158.000,158.231 158.000 C 158.127 158.000,158.233 158.549,158.467 159.220 M294.587 159.800 C 294.484 160.130,294.312 160.679,294.205 161.021 C 294.097 161.362,294.166 161.545,294.357 161.427 C 294.548 161.309,294.791 160.759,294.897 160.206 C 295.106 159.113,294.890 158.830,294.587 159.800 M239.829 162.861 C 239.483 163.555,239.201 164.320,239.202 164.561 C 239.205 165.003,240.014 163.602,240.509 162.300 C 240.949 161.143,240.503 161.511,239.829 162.861 M238.400 165.800 C 238.400 166.130,238.580 166.400,238.800 166.400 C 239.020 166.400,239.200 166.130,239.200 165.800 C 239.200 165.470,239.020 165.200,238.800 165.200 C 238.580 165.200,238.400 165.470,238.400 165.800 M237.350 169.043 C 237.203 169.459,236.836 170.413,236.536 171.161 C 236.235 171.910,236.056 172.589,236.138 172.671 C 236.219 172.752,236.673 171.886,237.147 170.747 C 237.620 169.607,237.920 168.587,237.813 168.480 C 237.706 168.373,237.498 168.626,237.350 169.043 M163.213 171.024 C 163.206 171.256,163.464 171.796,163.787 172.224 C 164.110 172.651,164.380 172.809,164.387 172.576 C 164.394 172.344,164.136 171.804,163.813 171.376 C 163.490 170.949,163.220 170.791,163.213 171.024 M286.600 177.600 C 286.450 178.073,286.417 178.550,286.527 178.660 C 286.637 178.770,286.850 178.473,287.000 178.000 C 287.150 177.527,287.183 177.050,287.073 176.940 C 286.963 176.830,286.750 177.127,286.600 177.600 M166.218 178.100 C 166.368 178.595,166.655 179.176,166.856 179.391 C 167.057 179.606,167.019 179.201,166.772 178.491 C 166.265 177.038,165.797 176.708,166.218 178.100 M112.813 179.424 C 112.806 179.656,113.064 180.196,113.387 180.624 C 113.710 181.051,113.980 181.209,113.987 180.976 C 113.994 180.744,113.736 180.204,113.413 179.776 C 113.090 179.349,112.820 179.191,112.813 179.424 M386.428 179.476 C 386.518 180.515,387.144 181.396,387.172 180.524 C 387.187 180.042,387.020 179.536,386.800 179.400 C 386.580 179.264,386.413 179.298,386.428 179.476 M14.493 181.200 C 14.493 181.970,14.575 182.285,14.676 181.900 C 14.776 181.515,14.776 180.885,14.676 180.500 C 14.575 180.115,14.493 180.430,14.493 181.200 M172.975 194.400 C 173.098 194.730,173.313 195.324,173.451 195.719 C 173.732 196.521,174.837 196.490,175.109 195.673 C 175.214 195.359,175.033 195.197,174.665 195.273 C 174.324 195.343,173.753 195.040,173.397 194.600 C 173.041 194.160,172.851 194.070,172.975 194.400 M278.400 196.400 C 278.144 196.878,278.025 197.359,278.135 197.469 C 278.245 197.579,278.544 197.278,278.800 196.800 C 279.056 196.322,279.175 195.841,279.065 195.731 C 278.955 195.621,278.656 195.922,278.400 196.400 M223.625 197.251 C 223.597 197.991,224.686 199.047,225.076 198.657 C 225.218 198.516,225.118 198.400,224.854 198.400 C 224.590 198.400,224.211 197.995,224.012 197.500 C 223.768 196.891,223.643 196.810,223.625 197.251 M276.652 200.100 C 276.241 201.633,276.379 201.850,277.002 200.654 C 277.699 199.319,277.719 199.200,277.247 199.200 C 277.052 199.200,276.785 199.605,276.652 200.100 M274.730 204.818 C 274.361 205.688,274.131 206.400,274.219 206.400 C 274.513 206.400,275.650 203.951,275.524 203.591 C 275.456 203.396,275.098 203.949,274.730 204.818 M264.935 227.290 C 264.198 228.282,263.635 229.974,263.972 230.183 C 264.274 230.370,264.882 228.824,264.773 228.147 C 264.750 228.005,264.967 227.744,265.254 227.566 C 265.542 227.389,265.673 227.139,265.545 227.012 C 265.418 226.885,265.144 227.010,264.935 227.290 M262.467 233.180 C 262.233 233.851,262.127 234.400,262.231 234.400 C 262.501 234.400,263.256 232.322,263.057 232.124 C 262.967 232.033,262.701 232.508,262.467 233.180 M18.318 242.826 C 18.414 243.477,18.619 244.088,18.774 244.184 C 18.929 244.279,18.977 243.825,18.882 243.174 C 18.786 242.523,18.581 241.912,18.426 241.816 C 18.271 241.721,18.223 242.175,18.318 242.826 M140.813 243.024 C 140.806 243.256,141.064 243.796,141.387 244.224 C 141.710 244.651,141.980 244.809,141.987 244.576 C 141.994 244.344,141.736 243.804,141.413 243.376 C 141.090 242.949,140.820 242.791,140.813 243.024 M142.400 246.721 C 142.400 246.971,142.747 247.794,143.172 248.550 C 143.596 249.305,143.821 250.059,143.672 250.226 C 143.522 250.392,143.618 250.403,143.885 250.250 C 144.247 250.042,144.172 249.619,143.590 248.583 C 143.161 247.819,142.823 247.090,142.839 246.964 C 142.854 246.837,142.762 246.628,142.633 246.500 C 142.505 246.372,142.400 246.471,142.400 246.721 M254.900 250.100 C 254.470 251.275,254.480 251.326,255.012 250.624 C 255.521 249.952,255.821 248.800,255.488 248.800 C 255.426 248.800,255.161 249.385,254.900 250.100 M252.806 254.900 C 252.811 255.628,252.886 255.685,253.200 255.200 C 253.701 254.424,253.701 254.000,253.200 254.000 C 252.980 254.000,252.803 254.405,252.806 254.900 M246.471 269.634 C 246.197 270.073,246.103 270.643,246.262 270.900 C 246.440 271.188,246.671 270.921,246.862 270.204 C 247.246 268.769,247.123 268.591,246.471 269.634 M154.425 273.000 C 154.425 273.220,154.690 273.749,155.013 274.176 C 155.336 274.604,155.600 274.773,155.600 274.553 C 155.600 274.333,155.336 273.804,155.013 273.376 C 154.690 272.949,154.425 272.780,154.425 273.000 M155.614 276.020 C 155.622 276.339,155.902 277.050,156.237 277.600 L 156.846 278.600 156.595 277.400 C 156.319 276.084,155.591 275.058,155.614 276.020 M240.926 281.900 C 240.789 282.285,240.601 282.780,240.509 283.000 C 240.416 283.220,240.624 283.051,240.970 282.624 C 241.599 281.848,241.789 281.200,241.387 281.200 C 241.271 281.200,241.063 281.515,240.926 281.900 M239.648 284.926 C 238.993 286.573,239.106 287.190,239.813 285.833 C 240.148 285.191,240.349 284.471,240.259 284.233 C 240.169 283.995,239.894 284.307,239.648 284.926 M167.413 302.800 C 167.755 303.995,167.921 304.213,168.241 303.893 C 168.373 303.760,168.177 303.235,167.804 302.726 L 167.126 301.800 167.413 302.800 M232.089 302.500 C 231.535 303.177,229.485 308.277,229.964 307.788 C 230.172 307.574,230.731 306.410,231.205 305.201 C 231.679 303.992,232.253 302.777,232.482 302.501 C 232.711 302.225,232.808 302.000,232.698 302.000 C 232.588 302.000,232.314 302.225,232.089 302.500 M228.267 310.667 C 228.120 310.813,228.011 311.308,228.025 311.767 C 228.049 312.533,228.082 312.523,228.434 311.642 C 228.826 310.663,228.744 310.189,228.267 310.667 M223.632 321.539 C 222.979 322.760,223.114 323.100,223.841 322.063 C 224.193 321.560,224.388 321.054,224.273 320.940 C 224.159 320.825,223.870 321.095,223.632 321.539 M58.092 321.675 C 58.179 321.936,58.464 322.221,58.725 322.308 C 59.018 322.406,59.107 322.223,58.957 321.833 C 58.678 321.106,57.852 320.955,58.092 321.675 M337.798 327.602 C 337.398 328.044,337.148 328.481,337.240 328.574 C 337.333 328.667,337.799 328.305,338.274 327.771 C 338.750 327.237,339.001 326.800,338.832 326.800 C 338.662 326.800,338.197 327.161,337.798 327.602 M179.600 330.560 C 179.600 330.648,180.048 331.683,180.596 332.860 C 181.790 335.424,181.951 334.894,180.781 332.251 C 180.079 330.662,179.600 329.977,179.600 330.560 M218.485 333.213 C 217.908 334.136,217.879 334.400,218.353 334.400 C 218.675 334.400,219.302 332.768,219.069 332.536 C 219.014 332.481,218.752 332.786,218.485 333.213 M68.833 333.300 C 68.925 333.355,69.540 333.850,70.200 334.400 L 71.400 335.400 70.430 334.300 C 69.897 333.695,69.282 333.200,69.064 333.200 C 68.845 333.200,68.742 333.245,68.833 333.300 M216.800 336.767 C 216.800 336.969,216.675 337.464,216.522 337.867 C 216.262 338.554,216.288 338.557,216.922 337.929 C 217.674 337.183,217.817 336.400,217.200 336.400 C 216.980 336.400,216.800 336.565,216.800 336.767 M215.684 339.775 C 215.098 341.061,215.250 341.504,215.976 340.629 C 216.246 340.304,216.406 339.725,216.332 339.343 C 216.229 338.809,216.078 338.910,215.684 339.775 M214.465 342.617 C 213.795 344.088,213.923 344.402,214.647 343.065 C 214.986 342.440,215.188 341.854,215.096 341.763 C 215.005 341.671,214.721 342.056,214.465 342.617 M91.600 352.285 C 91.600 352.634,93.199 353.738,93.400 353.528 C 93.467 353.457,93.089 353.077,92.561 352.681 C 92.032 352.286,91.600 352.108,91.600 352.285 M191.669 358.200 C 191.805 358.968,192.130 359.001,199.805 359.014 L 207.800 359.028 200.200 358.909 C 193.542 358.805,192.534 358.704,192.064 358.095 C 191.565 357.448,191.538 357.456,191.669 358.200 " stroke="none" fill="#f8143c" fill-rule="evenodd"></path><path id="path0" d="M183.600 13.862 C 182.170 13.948,180.730 14.126,180.400 14.258 C 180.070 14.389,179.350 14.540,178.800 14.594 C 173.790 15.083,168.927 15.756,168.600 16.006 C 168.380 16.174,166.894 16.439,165.298 16.596 C 163.703 16.753,162.307 17.026,162.198 17.203 C 162.089 17.380,161.054 17.666,159.900 17.838 C 157.595 18.182,157.656 18.169,156.800 18.503 C 156.470 18.632,155.030 19.010,153.600 19.344 C 148.695 20.490,147.000 20.957,146.800 21.221 C 146.690 21.366,145.881 21.617,145.003 21.779 C 144.125 21.940,143.225 22.189,143.003 22.330 C 142.781 22.472,142.510 22.605,142.400 22.626 C 141.250 22.849,139.702 23.387,139.300 23.704 C 139.025 23.921,138.800 23.964,138.800 23.800 C 138.800 23.636,138.575 23.683,138.300 23.905 C 138.025 24.126,137.170 24.439,136.400 24.600 C 135.630 24.761,134.820 25.021,134.600 25.177 C 134.380 25.334,133.300 25.791,132.200 26.193 C 131.100 26.594,129.210 27.359,128.000 27.891 C 126.790 28.424,125.170 29.137,124.400 29.476 C 123.630 29.815,120.981 31.073,118.512 32.272 C 116.044 33.470,113.970 34.394,113.903 34.325 C 113.836 34.256,113.353 34.599,112.830 35.086 C 112.307 35.574,111.726 35.878,111.539 35.763 C 111.353 35.647,111.200 35.724,111.200 35.933 C 111.200 36.142,110.707 36.437,110.104 36.588 C 109.501 36.740,108.916 37.000,108.804 37.166 C 108.692 37.333,107.700 37.985,106.600 38.615 C 105.500 39.246,104.510 39.864,104.400 39.989 C 104.290 40.114,103.674 40.483,103.031 40.808 C 100.810 41.932,100.400 42.191,100.400 42.464 C 100.400 42.616,99.389 43.248,98.153 43.870 C 96.916 44.491,95.817 45.225,95.710 45.500 C 95.602 45.775,95.346 46.000,95.140 46.000 C 94.764 46.000,94.194 46.409,92.771 47.700 C 92.347 48.085,91.814 48.400,91.587 48.400 C 91.361 48.400,91.071 48.670,90.945 49.000 C 90.818 49.330,90.480 49.600,90.193 49.600 C 89.673 49.600,86.759 51.786,84.725 53.703 C 84.133 54.260,83.548 54.615,83.425 54.491 C 83.301 54.368,83.200 54.477,83.200 54.733 C 83.200 54.990,83.028 55.200,82.819 55.200 C 82.609 55.200,81.619 56.030,80.619 57.045 C 79.618 58.059,78.800 58.769,78.800 58.623 C 78.800 58.476,78.035 59.071,77.100 59.945 C 76.165 60.819,74.860 61.954,74.200 62.467 C 72.611 63.703,62.800 73.687,62.800 74.070 C 62.800 74.234,61.900 75.210,60.800 76.239 C 59.700 77.268,58.800 78.355,58.800 78.655 C 58.800 78.955,58.614 79.200,58.387 79.200 C 58.161 79.200,57.878 79.454,57.759 79.763 C 57.640 80.073,56.657 81.288,55.574 82.463 C 54.491 83.639,53.604 84.727,53.602 84.882 C 53.601 85.037,53.195 85.599,52.700 86.132 C 50.989 87.973,50.187 89.004,49.659 90.039 C 49.368 90.611,48.696 91.584,48.165 92.202 C 47.634 92.819,47.200 93.476,47.200 93.662 C 47.200 93.848,46.885 94.330,46.500 94.734 C 46.115 95.138,45.573 95.813,45.295 96.234 C 45.017 96.655,44.077 98.080,43.206 99.400 C 42.335 100.720,41.618 102.025,41.611 102.300 C 41.605 102.575,41.409 102.800,41.176 102.800 C 40.943 102.800,40.864 102.980,41.000 103.200 C 41.136 103.420,41.085 103.600,40.887 103.600 C 40.688 103.600,40.183 104.272,39.763 105.094 C 39.343 105.916,38.775 106.828,38.501 107.122 C 38.226 107.416,37.891 108.093,37.757 108.628 C 37.623 109.163,37.370 109.600,37.196 109.600 C 37.021 109.600,36.680 110.095,36.437 110.700 C 36.194 111.305,35.457 112.786,34.798 113.992 C 34.139 115.198,33.600 116.391,33.600 116.643 C 33.600 116.896,33.330 117.326,33.000 117.600 C 32.670 117.874,32.400 118.436,32.400 118.849 C 32.400 119.262,32.220 119.600,32.000 119.600 C 31.780 119.600,31.600 119.878,31.600 120.218 C 31.600 120.558,31.150 121.682,30.600 122.715 C 30.050 123.748,29.600 124.910,29.600 125.297 C 29.600 125.684,29.420 126.000,29.200 126.000 C 28.980 126.000,28.800 126.228,28.800 126.506 C 28.800 126.784,28.440 127.684,28.000 128.504 C 27.560 129.325,27.194 130.223,27.186 130.499 C 27.179 130.774,26.825 131.720,26.400 132.600 C 25.975 133.480,25.621 134.605,25.614 135.100 C 25.606 135.595,25.420 136.000,25.200 136.000 C 24.980 136.000,24.800 136.258,24.800 136.574 C 24.800 136.890,24.585 137.655,24.322 138.274 C 24.059 138.893,23.816 139.580,23.783 139.800 C 23.724 140.189,23.621 140.486,22.672 143.000 C 22.158 144.360,22.145 144.413,21.759 146.600 C 21.603 147.480,21.359 148.290,21.217 148.400 C 21.074 148.510,20.730 149.500,20.453 150.600 C 18.718 157.483,18.299 159.269,17.874 161.600 C 17.613 163.030,17.276 164.391,17.124 164.624 C 16.972 164.857,16.722 166.432,16.568 168.124 C 16.415 169.816,16.132 171.200,15.938 171.200 C 15.745 171.200,15.608 171.695,15.634 172.300 C 15.660 172.905,15.453 175.380,15.174 177.800 C 14.895 180.220,14.652 182.965,14.634 183.900 C 14.615 184.835,14.466 185.600,14.303 185.600 C 13.959 185.600,14.156 214.321,14.522 217.600 C 15.081 222.589,15.985 229.139,16.401 231.200 C 16.645 232.410,16.835 233.985,16.822 234.700 C 16.810 235.415,16.957 236.000,17.149 236.000 C 17.340 236.000,17.620 237.256,17.772 238.791 C 17.923 240.326,18.199 241.676,18.386 241.791 C 18.572 241.907,18.852 242.946,19.007 244.100 C 19.163 245.255,19.422 246.380,19.585 246.600 C 19.747 246.820,20.114 248.170,20.400 249.600 C 20.686 251.030,21.052 252.380,21.214 252.600 C 21.375 252.820,21.636 253.630,21.793 254.400 C 22.150 256.151,24.808 264.060,25.222 264.600 C 25.391 264.820,25.655 265.675,25.809 266.500 C 25.963 267.325,26.235 268.000,26.413 268.000 C 26.591 268.000,26.865 268.585,27.022 269.300 C 27.178 270.015,27.643 271.227,28.053 271.994 C 28.464 272.761,28.800 273.616,28.800 273.894 C 28.800 274.172,28.980 274.400,29.200 274.400 C 29.420 274.400,29.600 274.769,29.600 275.221 C 29.600 275.922,30.283 277.501,31.669 280.000 C 31.852 280.330,32.162 280.960,32.357 281.400 C 33.748 284.537,35.714 288.423,35.998 288.598 C 36.185 288.714,36.457 289.347,36.601 290.005 C 36.745 290.662,37.005 291.200,37.177 291.200 C 37.349 291.200,38.100 292.385,38.845 293.832 C 39.590 295.280,40.378 296.810,40.595 297.232 C 40.812 297.655,41.113 298.000,41.264 298.000 C 41.416 298.000,42.040 298.990,42.653 300.200 C 43.266 301.410,43.910 302.400,44.084 302.400 C 44.258 302.400,44.400 302.606,44.400 302.859 C 44.400 303.111,45.030 304.086,45.800 305.026 C 46.570 305.966,47.200 306.847,47.200 306.984 C 47.200 307.381,48.951 309.769,49.500 310.120 C 49.775 310.296,50.000 310.618,50.000 310.837 C 50.000 311.264,50.083 311.376,52.190 313.800 C 52.955 314.680,53.586 315.540,53.591 315.711 C 53.600 316.016,54.721 317.329,57.700 320.520 C 58.525 321.404,59.200 322.253,59.200 322.406 C 59.200 322.559,59.993 323.499,60.962 324.496 C 61.930 325.493,62.929 326.694,63.182 327.166 C 63.434 327.637,63.816 327.914,64.030 327.781 C 64.244 327.649,64.370 327.707,64.310 327.910 C 64.249 328.113,65.640 329.688,67.400 331.411 C 69.160 333.133,70.551 334.703,70.490 334.901 C 70.430 335.098,70.530 335.167,70.713 335.054 C 70.896 334.941,71.376 335.287,71.779 335.824 C 72.182 336.361,72.757 336.800,73.056 336.800 C 73.355 336.800,73.600 337.076,73.600 337.413 C 73.600 337.749,73.915 338.141,74.300 338.283 C 74.685 338.424,75.362 338.914,75.805 339.370 C 76.668 340.261,82.008 344.800,83.511 345.921 C 84.012 346.294,85.249 347.365,86.261 348.300 C 87.273 349.235,88.230 350.000,88.389 350.000 C 88.649 350.000,89.470 350.613,91.190 352.093 C 91.515 352.372,91.815 352.510,91.858 352.400 C 91.901 352.290,92.363 352.571,92.885 353.025 C 93.407 353.480,94.142 353.969,94.517 354.113 C 94.893 354.257,95.200 354.561,95.200 354.787 C 95.200 355.014,95.442 355.200,95.738 355.200 C 96.034 355.200,96.602 355.560,97.000 356.000 C 97.398 356.440,97.939 356.800,98.201 356.800 C 98.463 356.800,99.093 357.160,99.600 357.600 C 100.107 358.040,100.677 358.400,100.865 358.400 C 101.054 358.400,102.065 358.985,103.112 359.700 C 104.159 360.415,105.642 361.351,106.408 361.780 C 107.173 362.209,107.980 362.717,108.200 362.910 C 108.704 363.350,112.639 365.430,114.100 366.028 C 114.705 366.276,115.200 366.626,115.200 366.807 C 115.200 366.988,115.740 367.255,116.400 367.400 C 117.060 367.545,117.600 367.801,117.600 367.968 C 117.600 368.136,118.320 368.489,119.200 368.753 C 120.080 369.016,120.800 369.405,120.800 369.616 C 120.800 369.827,121.159 370.000,121.599 370.000 C 122.496 370.000,128.439 372.765,128.894 373.394 C 129.056 373.617,129.191 373.689,129.194 373.553 C 129.197 373.417,130.415 373.749,131.900 374.290 C 133.385 374.831,135.005 375.368,135.500 375.484 C 135.995 375.599,136.400 375.842,136.400 376.024 C 136.400 376.205,136.760 376.285,137.200 376.200 C 137.640 376.115,138.000 376.196,138.000 376.380 C 138.000 376.654,139.645 377.262,140.400 377.267 C 140.510 377.267,140.780 377.412,141.000 377.588 C 141.220 377.764,142.030 378.039,142.800 378.200 C 143.570 378.361,144.380 378.633,144.600 378.805 C 144.820 378.976,145.699 379.209,146.554 379.322 C 147.408 379.434,148.238 379.738,148.398 379.997 C 148.558 380.256,148.807 380.438,148.950 380.400 C 149.439 380.272,152.598 380.889,153.000 381.191 C 153.220 381.356,153.670 381.511,154.000 381.536 C 155.148 381.623,159.403 382.602,159.823 382.876 C 160.056 383.028,161.226 383.266,162.423 383.406 C 163.620 383.546,164.960 383.818,165.400 384.010 C 165.840 384.203,167.550 384.555,169.200 384.793 C 170.850 385.031,172.650 385.304,173.200 385.400 C 175.412 385.787,181.938 386.379,184.100 386.389 C 185.365 386.395,186.400 386.572,186.400 386.781 C 186.400 387.016,192.040 387.173,201.029 387.190 C 209.386 387.206,215.565 387.067,215.440 386.865 C 215.272 386.592,220.744 386.059,225.500 385.885 C 225.775 385.875,226.000 385.762,226.000 385.633 C 226.001 385.505,226.766 385.406,227.700 385.414 C 228.635 385.421,229.580 385.331,229.800 385.214 C 230.020 385.096,231.460 384.797,233.000 384.549 C 238.048 383.737,240.987 383.151,241.800 382.795 C 242.240 382.602,243.590 382.326,244.800 382.181 C 246.010 382.036,247.540 381.676,248.200 381.381 C 248.860 381.086,250.255 380.724,251.300 380.577 C 252.345 380.430,253.200 380.161,253.200 379.979 C 253.200 379.798,254.010 379.528,255.000 379.379 C 255.990 379.231,256.800 378.965,256.800 378.790 C 256.800 378.614,257.565 378.354,258.500 378.212 C 259.435 378.071,260.560 377.787,261.000 377.581 C 261.915 377.154,267.906 374.959,270.000 374.284 C 270.770 374.035,271.510 373.674,271.645 373.482 C 271.779 373.289,272.002 373.142,272.141 373.155 C 272.568 373.194,273.692 372.747,276.602 371.381 C 278.142 370.657,279.897 369.941,280.502 369.789 C 281.106 369.637,281.600 369.387,281.600 369.234 C 281.600 368.950,283.860 367.893,285.500 367.411 C 285.995 367.265,286.400 366.996,286.400 366.812 C 286.400 366.629,286.895 366.278,287.500 366.033 C 288.105 365.788,289.860 364.886,291.400 364.030 C 292.940 363.174,295.145 361.977,296.300 361.371 C 297.455 360.765,298.400 360.119,298.400 359.935 C 298.400 359.751,298.676 359.600,299.013 359.600 C 299.349 359.600,299.729 359.330,299.855 359.000 C 299.982 358.670,300.270 358.400,300.496 358.400 C 300.721 358.400,301.557 357.996,302.353 357.502 C 303.149 357.009,303.894 356.604,304.010 356.602 C 304.267 356.599,305.426 355.644,306.317 354.700 C 306.680 354.315,307.279 354.000,307.646 354.000 C 308.014 354.000,308.418 353.730,308.545 353.400 C 308.671 353.070,309.051 352.800,309.387 352.800 C 309.724 352.800,310.000 352.616,310.000 352.391 C 310.000 352.167,310.480 351.764,311.067 351.497 C 312.071 351.039,313.571 349.895,315.259 348.300 C 315.667 347.915,316.171 347.600,316.380 347.600 C 316.589 347.600,316.904 347.375,317.080 347.100 C 317.256 346.825,318.390 345.797,319.600 344.815 C 320.810 343.833,321.944 342.798,322.120 342.515 C 322.296 342.232,322.678 342.000,322.969 342.000 C 323.260 342.000,324.245 341.190,325.157 340.200 C 326.070 339.210,326.993 338.400,327.208 338.400 C 327.424 338.400,327.600 338.190,327.600 337.933 C 327.600 337.677,327.690 337.556,327.799 337.666 C 328.034 337.901,334.454 331.562,337.600 327.988 C 338.810 326.613,340.413 324.884,341.161 324.144 C 341.910 323.405,342.417 322.800,342.287 322.800 C 342.158 322.800,342.895 321.922,343.926 320.849 C 344.957 319.776,345.980 318.631,346.200 318.305 C 347.794 315.943,348.279 315.306,349.025 314.600 C 349.490 314.160,350.298 313.087,350.820 312.215 C 351.343 311.343,352.047 310.329,352.385 309.962 C 353.588 308.657,354.400 307.430,354.400 306.919 C 354.400 306.633,354.559 306.400,354.753 306.400 C 354.947 306.400,355.888 305.185,356.844 303.700 C 357.800 302.215,358.707 300.908,358.860 300.796 C 359.012 300.684,359.257 300.112,359.404 299.525 C 359.552 298.938,359.926 298.361,360.236 298.241 C 360.546 298.122,360.800 297.769,360.800 297.455 C 360.800 297.142,361.053 296.788,361.362 296.670 C 361.672 296.551,362.043 295.917,362.187 295.260 C 362.331 294.604,362.708 293.967,363.024 293.846 C 363.341 293.724,363.600 293.270,363.600 292.836 C 363.600 292.402,363.791 291.929,364.025 291.785 C 364.396 291.555,365.256 289.752,365.257 289.200 C 365.257 289.090,365.514 288.856,365.828 288.680 C 366.143 288.504,366.400 288.024,366.400 287.613 C 366.400 287.203,366.548 286.807,366.728 286.733 C 367.211 286.537,370.400 279.952,370.400 279.151 C 370.400 278.775,370.535 278.407,370.700 278.333 C 371.078 278.165,372.800 274.666,372.800 274.066 C 372.800 273.820,373.159 273.030,373.599 272.310 C 374.038 271.589,374.398 270.595,374.399 270.100 C 374.399 269.605,374.566 269.200,374.768 269.200 C 374.971 269.200,375.258 268.648,375.406 267.973 C 375.554 267.298,375.927 266.263,376.235 265.673 C 376.543 265.083,376.796 264.296,376.798 263.924 C 376.799 263.552,376.949 263.155,377.132 263.042 C 377.314 262.930,377.703 261.839,377.996 260.619 C 378.288 259.398,378.662 258.400,378.826 258.400 C 378.991 258.400,379.249 257.500,379.400 256.400 C 379.551 255.301,379.833 254.303,380.026 254.184 C 380.219 254.065,380.495 253.075,380.640 251.984 C 380.785 250.893,381.030 250.000,381.185 250.000 C 381.340 250.000,381.495 249.775,381.530 249.500 C 381.818 247.250,382.626 243.755,382.903 243.563 C 383.091 243.432,383.350 242.307,383.478 241.063 C 383.607 239.818,383.856 238.800,384.031 238.800 C 384.207 238.800,384.343 238.485,384.334 238.100 C 384.312 237.110,384.792 233.552,385.076 232.605 C 385.207 232.168,385.366 231.358,385.430 230.805 C 385.493 230.252,385.648 229.350,385.774 228.800 C 385.899 228.250,386.116 226.270,386.255 224.400 C 386.395 222.530,386.702 220.756,386.939 220.457 C 387.547 219.689,387.789 189.369,387.226 184.400 C 386.989 182.310,386.591 178.485,386.341 175.900 C 386.091 173.315,385.756 171.200,385.596 171.200 C 385.436 171.200,385.371 170.633,385.452 169.940 C 385.532 169.247,385.441 168.482,385.249 168.240 C 385.056 167.998,384.773 166.720,384.619 165.400 C 384.465 164.080,384.083 162.229,383.770 161.286 C 383.456 160.343,383.200 158.858,383.200 157.986 C 383.200 157.114,383.038 156.400,382.841 156.400 C 382.644 156.400,382.271 155.188,382.013 153.707 C 381.755 152.227,381.400 150.832,381.223 150.607 C 381.046 150.383,380.778 149.349,380.627 148.309 C 380.477 147.269,380.208 146.328,380.029 146.218 C 379.851 146.108,379.584 145.258,379.435 144.329 C 379.286 143.400,379.018 142.451,378.838 142.220 C 378.658 141.989,378.382 141.260,378.224 140.600 C 378.067 139.940,377.699 138.860,377.407 138.200 C 376.812 136.857,376.234 134.757,376.334 134.300 C 376.370 134.135,376.240 134.000,376.045 134.000 C 375.849 134.000,375.571 133.370,375.426 132.600 C 375.282 131.830,374.992 131.200,374.782 131.200 C 374.572 131.200,374.400 130.897,374.400 130.526 C 374.400 130.156,374.055 129.121,373.634 128.226 C 372.061 124.885,371.200 122.831,371.200 122.422 C 371.200 122.190,371.040 122.000,370.845 122.000 C 370.649 122.000,370.369 121.361,370.222 120.579 C 370.076 119.797,369.707 119.062,369.402 118.946 C 369.098 118.829,368.725 118.168,368.573 117.477 C 368.421 116.786,367.897 115.586,367.407 114.811 C 366.917 114.035,366.388 112.992,366.230 112.494 C 366.072 111.996,365.775 111.692,365.571 111.818 C 365.367 111.944,365.200 111.814,365.200 111.529 C 365.200 110.822,363.140 106.800,362.778 106.800 C 362.618 106.800,362.363 106.307,362.212 105.704 C 362.060 105.101,361.794 104.516,361.621 104.404 C 361.447 104.292,360.741 103.140,360.052 101.844 C 359.364 100.548,358.800 99.635,358.800 99.816 C 358.800 99.997,358.125 99.046,357.300 97.703 C 355.613 94.956,354.528 93.425,353.500 92.339 C 353.115 91.933,352.816 91.498,352.836 91.373 C 352.875 91.124,351.691 89.418,350.900 88.584 C 350.625 88.294,350.400 87.904,350.400 87.718 C 350.400 87.395,349.172 85.884,346.993 83.526 C 346.447 82.935,345.999 82.305,345.997 82.126 C 345.995 81.946,345.185 81.006,344.197 80.035 C 343.209 79.064,342.400 78.149,342.400 78.000 C 342.400 77.852,341.680 76.973,340.800 76.048 C 339.920 75.123,339.200 74.194,339.200 73.983 C 339.200 73.772,338.930 73.600,338.600 73.600 C 338.270 73.600,338.000 73.449,338.000 73.265 C 338.000 72.681,323.101 58.020,322.546 58.058 C 322.430 58.066,321.615 57.426,320.735 56.636 C 319.855 55.846,319.030 55.200,318.901 55.200 C 318.772 55.200,318.382 54.930,318.034 54.601 C 316.055 52.729,313.757 50.820,313.471 50.811 C 313.291 50.805,312.892 50.575,312.585 50.300 C 311.536 49.359,308.441 47.097,305.463 45.096 C 305.057 44.823,304.355 44.285,303.901 43.900 C 303.448 43.515,302.848 43.200,302.567 43.200 C 302.287 43.200,301.819 42.968,301.529 42.685 C 301.238 42.402,300.280 41.736,299.400 41.206 C 298.520 40.676,297.710 40.143,297.600 40.021 C 297.490 39.900,296.365 39.266,295.100 38.614 C 293.835 37.962,292.800 37.301,292.800 37.146 C 292.800 36.991,292.260 36.745,291.600 36.600 C 290.940 36.455,290.400 36.216,290.400 36.068 C 290.400 35.921,289.232 35.260,287.805 34.600 C 286.378 33.940,285.208 33.279,285.205 33.132 C 285.202 32.984,284.660 32.745,284.000 32.600 C 283.340 32.455,282.800 32.171,282.800 31.968 C 282.800 31.766,282.453 31.600,282.029 31.600 C 281.604 31.600,281.015 31.375,280.719 31.100 C 280.423 30.825,279.925 30.543,279.612 30.474 C 279.298 30.404,278.133 29.925,277.021 29.408 C 274.499 28.236,273.484 27.855,273.100 27.936 C 272.935 27.971,272.800 27.820,272.800 27.600 C 272.800 27.380,272.536 27.200,272.214 27.200 C 271.653 27.200,270.684 26.828,266.889 25.154 C 265.948 24.739,264.823 24.400,264.389 24.400 C 263.955 24.400,263.600 24.212,263.600 23.982 C 263.600 23.753,263.375 23.602,263.100 23.647 C 262.825 23.692,262.093 23.519,261.474 23.264 C 260.855 23.009,260.100 22.800,259.798 22.800 C 259.495 22.800,259.146 22.636,259.022 22.435 C 258.897 22.234,258.062 21.946,257.165 21.794 C 256.268 21.643,255.054 21.268,254.467 20.962 C 253.880 20.656,252.916 20.404,252.324 20.402 C 251.732 20.401,251.149 20.241,251.029 20.046 C 250.908 19.852,249.953 19.550,248.905 19.376 C 247.857 19.202,246.910 19.044,246.800 19.024 C 246.690 19.004,246.407 18.865,246.172 18.715 C 245.719 18.426,244.626 18.197,241.637 17.765 C 240.627 17.619,239.620 17.357,239.400 17.184 C 239.180 17.010,237.695 16.740,236.100 16.582 C 234.505 16.425,233.200 16.142,233.200 15.953 C 233.200 15.764,232.795 15.623,232.300 15.641 C 230.492 15.706,225.787 15.080,225.320 14.713 C 225.057 14.506,224.152 14.386,223.309 14.446 C 222.467 14.507,221.517 14.396,221.199 14.200 C 220.627 13.846,188.613 13.558,183.600 13.862 M205.800 65.968 C 207.340 66.207,208.960 66.559,209.400 66.751 C 209.840 66.943,210.740 67.334,211.400 67.619 C 212.060 67.905,212.825 68.099,213.100 68.052 C 213.375 68.004,213.600 68.133,213.600 68.339 C 213.600 68.545,214.065 68.830,214.634 68.973 C 215.203 69.116,215.878 69.402,216.134 69.609 C 216.390 69.817,217.926 70.962,219.547 72.155 C 221.167 73.347,222.801 74.791,223.177 75.365 C 223.553 75.938,223.982 76.285,224.130 76.137 C 224.279 75.988,224.400 76.064,224.400 76.305 C 224.400 76.546,224.636 76.981,224.925 77.271 C 225.739 78.091,228.363 82.714,228.639 83.815 C 228.775 84.357,229.047 84.800,229.243 84.800 C 229.440 84.800,229.600 85.250,229.600 85.800 C 229.600 86.350,229.763 86.800,229.963 86.800 C 230.162 86.800,230.231 87.161,230.115 87.602 C 230.000 88.043,230.099 88.637,230.335 88.921 C 230.879 89.578,231.059 92.057,230.614 92.777 C 230.379 93.157,230.426 93.231,230.766 93.021 C 231.142 92.788,231.232 93.610,231.154 96.559 C 231.097 98.672,230.899 100.400,230.712 100.400 C 230.525 100.400,230.542 100.718,230.750 101.106 C 231.009 101.590,230.955 102.047,230.576 102.565 C 230.273 102.979,230.113 103.459,230.219 103.631 C 230.326 103.804,230.230 104.058,230.007 104.196 C 229.783 104.334,229.600 104.776,229.600 105.178 C 229.600 105.580,229.331 106.424,229.002 107.054 C 228.674 107.684,228.404 108.506,228.402 108.880 C 228.401 109.254,228.114 109.720,227.764 109.916 C 227.414 110.112,227.156 110.346,227.190 110.436 C 227.436 111.091,226.586 112.375,224.100 115.105 C 223.165 116.131,222.400 117.088,222.400 117.231 C 222.400 117.374,221.641 118.011,220.713 118.646 C 219.786 119.281,218.731 120.090,218.369 120.445 C 217.604 121.194,213.871 123.016,212.287 123.414 C 211.689 123.564,211.200 123.831,211.200 124.008 C 211.200 124.185,210.435 124.456,209.500 124.610 C 208.565 124.764,207.547 125.095,207.238 125.345 C 206.464 125.972,192.737 125.973,191.961 125.346 C 191.653 125.097,190.770 124.768,190.000 124.616 C 187.327 124.089,181.557 121.281,180.514 120.000 C 180.245 119.670,180.020 119.524,180.013 119.676 C 180.006 119.828,178.695 118.609,177.100 116.969 C 173.223 112.981,172.802 112.485,172.791 111.900 C 172.786 111.625,172.430 110.950,172.000 110.400 C 171.570 109.850,171.214 109.175,171.209 108.900 C 171.204 108.625,171.035 108.400,170.832 108.400 C 170.522 108.400,170.212 107.427,169.466 104.112 C 169.406 103.843,169.231 103.498,169.078 103.345 C 168.925 103.192,168.800 102.117,168.800 100.957 C 168.800 99.797,168.652 98.755,168.470 98.643 C 168.005 98.356,168.504 90.719,169.087 89.200 C 169.214 88.870,169.336 88.210,169.359 87.733 C 169.381 87.257,169.535 86.732,169.700 86.567 C 169.865 86.402,170.000 86.015,170.000 85.708 C 170.000 84.878,171.809 81.123,172.660 80.184 C 173.067 79.736,173.459 79.106,173.530 78.784 C 173.602 78.463,173.827 78.140,174.030 78.067 C 174.234 77.993,174.400 77.668,174.400 77.343 C 174.400 77.018,174.580 76.864,174.800 77.000 C 175.020 77.136,175.200 77.041,175.200 76.789 C 175.200 76.099,180.287 71.200,181.003 71.200 C 181.345 71.200,181.729 70.930,181.855 70.600 C 181.982 70.270,182.437 70.000,182.866 70.000 C 183.296 70.000,183.536 69.820,183.400 69.600 C 183.264 69.380,183.478 69.199,183.876 69.199 C 184.274 69.198,185.144 68.865,185.808 68.460 C 186.473 68.055,187.688 67.598,188.508 67.444 C 189.329 67.290,190.000 67.014,190.000 66.830 C 190.000 66.647,191.384 66.291,193.075 66.040 C 194.767 65.788,196.198 65.535,196.257 65.477 C 196.508 65.226,203.242 65.572,205.800 65.968 M138.275 110.314 C 138.786 110.639,139.776 112.792,139.657 113.322 C 139.618 113.499,139.859 114.034,140.193 114.511 C 140.527 114.988,140.800 115.709,140.800 116.113 C 140.800 116.517,140.958 116.750,141.151 116.630 C 141.345 116.511,141.616 116.981,141.755 117.676 C 141.894 118.371,142.546 120.078,143.204 121.471 C 143.862 122.863,144.400 124.232,144.400 124.512 C 144.400 124.793,144.655 125.386,144.967 125.831 C 145.279 126.277,145.659 127.305,145.811 128.117 C 145.963 128.929,146.248 129.494,146.444 129.373 C 146.640 129.252,146.800 129.513,146.800 129.953 C 146.800 130.393,146.983 130.866,147.207 131.004 C 147.430 131.142,147.526 131.396,147.419 131.569 C 147.313 131.741,147.484 132.224,147.800 132.641 C 148.116 133.058,148.380 133.796,148.387 134.280 C 148.394 134.764,148.715 135.337,149.100 135.552 C 149.485 135.767,149.755 136.091,149.701 136.272 C 149.525 136.853,150.079 139.200,150.393 139.200 C 150.559 139.200,150.923 140.010,151.200 141.000 C 151.477 141.990,151.838 142.800,152.001 142.800 C 152.164 142.800,152.413 143.520,152.554 144.400 C 152.694 145.280,152.987 146.000,153.205 146.000 C 153.422 146.000,153.600 146.265,153.600 146.589 C 153.600 146.913,153.989 148.038,154.464 149.089 C 156.207 152.943,156.946 154.618,157.247 155.400 C 157.417 155.840,157.926 157.045,158.378 158.078 C 158.830 159.111,159.201 160.101,159.202 160.278 C 159.204 160.455,159.457 161.083,159.765 161.673 C 160.073 162.263,160.446 163.298,160.594 163.973 C 160.742 164.648,161.009 165.200,161.187 165.200 C 161.365 165.200,161.629 165.830,161.774 166.600 C 161.918 167.370,162.223 168.000,162.451 168.000 C 162.680 168.000,162.788 168.225,162.692 168.500 C 162.596 168.775,163.031 169.970,163.659 171.156 C 164.286 172.342,164.800 173.557,164.800 173.856 C 164.800 174.155,164.950 174.400,165.133 174.400 C 165.317 174.400,165.481 174.625,165.498 174.900 C 165.551 175.758,167.784 181.793,168.100 181.933 C 168.265 182.007,168.400 182.317,168.400 182.624 C 168.400 182.930,168.759 183.770,169.199 184.490 C 169.638 185.211,169.998 186.165,169.999 186.611 C 169.999 187.057,170.247 187.777,170.549 188.211 C 170.851 188.645,171.225 189.585,171.381 190.300 C 171.536 191.015,171.810 191.600,171.988 191.600 C 172.167 191.600,172.431 192.069,172.575 192.642 C 172.977 194.245,173.992 195.578,174.626 195.335 C 175.107 195.150,175.191 190.288,175.190 162.859 L 175.188 130.600 179.394 130.486 C 181.707 130.424,183.600 130.514,183.600 130.686 C 183.600 131.000,223.423 130.956,223.931 130.642 C 224.210 130.470,224.131 195.854,223.852 196.331 C 223.558 196.832,224.370 198.400,224.923 198.400 C 225.493 198.400,226.400 196.792,226.400 195.781 C 226.400 195.462,226.599 195.200,226.843 195.200 C 227.086 195.200,227.182 194.930,227.055 194.600 C 226.929 194.270,226.999 194.000,227.213 194.000 C 227.426 194.000,227.600 193.661,227.600 193.246 C 227.600 192.831,227.869 191.976,228.198 191.346 C 228.526 190.716,228.796 189.885,228.798 189.500 C 228.799 189.115,228.991 188.800,229.224 188.800 C 229.457 188.800,229.544 188.632,229.417 188.428 C 229.291 188.223,229.354 187.952,229.559 187.826 C 229.763 187.699,230.050 186.887,230.196 186.021 C 230.343 185.155,230.716 184.235,231.027 183.978 C 231.337 183.720,231.499 183.361,231.387 183.179 C 231.275 182.998,231.444 182.703,231.763 182.525 C 232.082 182.346,232.342 182.020,232.341 181.800 C 232.335 180.982,233.340 178.400,233.664 178.400 C 233.849 178.400,234.000 178.121,234.000 177.780 C 234.000 177.438,234.694 175.503,235.542 173.480 C 237.688 168.359,237.735 168.237,237.664 167.900 C 237.629 167.735,237.741 167.600,237.913 167.600 C 238.085 167.600,238.266 167.105,238.316 166.500 C 238.366 165.895,238.585 165.340,238.803 165.267 C 239.022 165.193,239.200 164.921,239.200 164.661 C 239.200 164.401,239.727 163.109,240.370 161.789 C 241.014 160.470,241.755 158.538,242.018 157.495 C 242.280 156.453,242.639 155.600,242.816 155.600 C 242.992 155.600,243.263 155.015,243.418 154.300 C 243.574 153.585,243.813 152.910,243.950 152.800 C 244.426 152.419,246.107 148.194,246.296 146.903 C 246.401 146.190,246.643 145.703,246.833 145.821 C 247.024 145.938,247.386 145.217,247.637 144.217 C 247.889 143.218,248.275 142.400,248.494 142.400 C 248.714 142.400,248.799 142.040,248.684 141.600 C 248.550 141.086,248.672 140.800,249.025 140.800 C 249.349 140.800,249.481 140.554,249.345 140.200 C 249.218 139.870,249.294 139.600,249.513 139.600 C 249.732 139.600,250.033 138.948,250.183 138.151 C 250.332 137.354,250.611 136.409,250.802 136.051 C 251.650 134.459,252.355 132.715,252.599 131.604 C 252.745 130.942,253.029 130.400,253.232 130.400 C 253.434 130.400,253.600 130.087,253.600 129.704 C 253.600 129.320,254.250 127.691,255.045 126.082 C 255.840 124.473,256.391 123.058,256.269 122.936 C 256.148 122.814,256.377 122.362,256.779 121.930 C 257.192 121.487,257.423 120.808,257.309 120.372 C 257.198 119.948,257.308 119.600,257.553 119.600 C 257.799 119.600,258.000 119.273,258.000 118.873 C 258.000 118.473,258.546 117.078,259.214 115.773 C 259.881 114.468,260.630 112.725,260.877 111.900 L 261.327 110.400 288.863 110.400 C 306.954 110.400,316.400 110.537,316.400 110.800 C 316.400 111.020,316.220 111.200,316.000 111.200 C 315.780 111.200,315.637 111.335,315.682 111.500 C 315.830 112.040,314.747 114.800,314.387 114.800 C 314.194 114.800,313.915 115.475,313.767 116.300 C 313.620 117.125,313.224 118.115,312.887 118.500 C 312.551 118.885,312.399 119.200,312.548 119.200 C 312.698 119.200,312.508 119.785,312.127 120.500 C 311.746 121.215,311.417 121.890,311.397 122.000 C 311.376 122.110,310.964 123.045,310.480 124.078 C 309.996 125.111,309.600 126.146,309.600 126.378 C 309.600 126.610,309.420 126.800,309.200 126.800 C 308.980 126.800,308.800 127.088,308.800 127.440 C 308.800 128.033,308.602 128.567,307.187 131.800 C 306.898 132.460,306.695 133.201,306.736 133.447 C 306.777 133.692,306.538 134.119,306.205 134.396 C 305.872 134.672,305.600 135.217,305.600 135.606 C 305.600 135.996,305.330 136.418,305.000 136.545 C 304.670 136.671,304.400 137.231,304.400 137.787 C 304.400 138.344,304.220 138.800,304.000 138.800 C 303.780 138.800,303.626 138.935,303.657 139.100 C 303.689 139.265,303.507 139.940,303.253 140.600 C 302.999 141.260,302.809 141.960,302.830 142.155 C 302.851 142.351,302.715 142.621,302.528 142.755 C 301.921 143.191,299.723 148.141,299.179 150.300 C 298.887 151.455,298.503 152.400,298.324 152.400 C 298.146 152.400,298.000 152.676,298.000 153.013 C 298.000 153.349,297.735 153.727,297.411 153.851 C 297.087 153.976,296.706 154.692,296.566 155.443 C 296.425 156.194,295.970 157.475,295.555 158.289 C 295.140 159.103,294.800 160.069,294.800 160.436 C 294.800 160.802,294.532 161.324,294.204 161.596 C 293.877 161.868,293.698 162.236,293.808 162.413 C 293.918 162.590,293.733 163.010,293.398 163.345 C 293.063 163.680,292.680 164.501,292.546 165.170 C 292.412 165.839,292.125 166.277,291.908 166.143 C 291.665 165.993,291.623 166.244,291.800 166.800 C 291.995 167.413,291.945 167.613,291.643 167.426 C 291.399 167.276,291.200 167.361,291.200 167.616 C 291.200 168.437,288.438 174.484,287.898 174.845 C 287.697 174.979,287.539 175.249,287.548 175.445 C 287.583 176.193,287.083 177.836,286.567 178.664 C 286.271 179.139,285.936 180.038,285.823 180.661 C 285.710 181.284,285.434 181.855,285.209 181.930 C 284.984 182.005,284.800 182.243,284.800 182.459 C 284.800 182.956,282.808 187.332,282.460 187.600 C 282.317 187.710,282.190 187.980,282.178 188.200 C 282.125 189.143,281.486 190.800,281.175 190.800 C 280.989 190.800,280.718 191.430,280.574 192.200 C 280.429 192.970,280.172 193.600,280.003 193.600 C 279.834 193.600,279.497 194.385,279.256 195.344 C 279.014 196.303,278.543 197.315,278.208 197.593 C 277.874 197.871,277.600 198.419,277.600 198.812 C 277.600 199.205,277.179 200.398,276.665 201.463 C 274.201 206.567,273.600 207.914,273.600 208.331 C 273.600 208.579,273.062 209.776,272.405 210.991 C 271.748 212.206,271.304 213.200,271.419 213.200 C 271.534 213.200,271.403 213.605,271.128 214.100 C 270.853 214.595,270.607 215.090,270.581 215.200 C 270.554 215.310,270.323 215.907,270.066 216.526 C 269.810 217.145,269.600 217.805,269.600 217.993 C 269.600 218.180,269.410 218.397,269.178 218.474 C 268.946 218.551,268.713 218.881,268.659 219.207 C 268.605 219.533,268.333 220.217,268.053 220.726 C 267.773 221.235,267.468 222.045,267.376 222.525 C 267.284 223.005,267.036 223.455,266.826 223.525 C 266.617 223.594,266.544 223.910,266.665 224.226 C 266.786 224.542,266.667 224.800,266.400 224.800 C 266.133 224.800,266.018 225.070,266.145 225.400 C 266.271 225.730,266.201 226.000,265.987 226.000 C 265.774 226.000,265.600 226.360,265.600 226.800 C 265.600 227.240,265.420 227.600,265.200 227.600 C 264.980 227.600,264.830 227.735,264.866 227.900 C 265.001 228.517,264.303 230.387,264.006 230.204 C 263.836 230.099,263.590 230.550,263.459 231.206 C 263.327 231.863,262.856 233.200,262.410 234.178 C 261.965 235.156,261.600 236.146,261.600 236.378 C 261.600 236.610,261.440 236.800,261.243 236.800 C 260.888 236.800,260.263 238.488,260.220 239.567 C 260.207 239.879,259.978 240.207,259.711 240.296 C 259.444 240.385,259.110 241.075,258.968 241.829 C 258.827 242.583,258.559 243.200,258.374 243.200 C 258.188 243.200,257.918 243.828,257.774 244.596 C 257.630 245.365,257.352 245.894,257.156 245.773 C 256.960 245.652,256.800 246.001,256.800 246.548 C 256.800 247.095,256.530 247.813,256.200 248.143 C 255.870 248.473,255.600 248.986,255.600 249.282 C 255.600 249.579,255.330 250.207,255.000 250.678 C 254.666 251.156,254.519 251.844,254.668 252.233 C 254.833 252.662,254.779 252.834,254.527 252.679 C 254.297 252.536,253.911 253.119,253.643 254.013 C 253.382 254.886,253.016 255.600,252.831 255.600 C 252.444 255.600,251.898 257.063,251.897 258.100 C 251.896 258.485,251.739 258.800,251.548 258.800 C 251.357 258.800,251.194 259.025,251.186 259.300 C 251.179 259.575,250.825 260.520,250.400 261.400 C 249.975 262.280,249.621 263.225,249.614 263.500 C 249.606 263.775,249.420 264.000,249.200 264.000 C 248.980 264.000,248.800 264.318,248.800 264.706 C 248.800 265.094,248.453 266.060,248.028 266.852 C 247.604 267.644,247.134 268.944,246.984 269.742 C 246.835 270.540,246.557 271.097,246.368 270.980 C 246.178 270.863,245.909 271.225,245.768 271.784 C 245.628 272.343,245.361 272.800,245.175 272.800 C 244.989 272.800,244.715 273.475,244.567 274.300 C 244.420 275.125,244.024 276.115,243.687 276.500 C 243.351 276.885,243.222 277.200,243.400 277.200 C 243.578 277.200,243.439 277.515,243.090 277.900 C 242.742 278.285,242.423 278.780,242.381 279.000 C 242.223 279.823,241.596 281.437,241.008 282.532 C 240.674 283.155,240.400 283.886,240.400 284.157 C 240.400 284.428,240.040 285.395,239.600 286.306 C 239.160 287.216,238.800 288.240,238.800 288.581 C 238.800 288.921,238.623 289.200,238.408 289.200 C 238.192 289.200,237.907 289.633,237.774 290.161 C 237.641 290.690,236.918 292.345,236.166 293.838 C 235.415 295.332,234.800 296.756,234.800 297.002 C 234.800 297.249,234.315 298.429,233.723 299.625 C 233.130 300.821,232.619 301.890,232.587 302.000 C 232.516 302.241,231.410 304.795,230.423 307.000 C 230.029 307.880,229.412 309.257,229.053 310.060 C 228.694 310.864,228.400 311.729,228.400 311.984 C 228.400 312.239,228.236 312.346,228.035 312.222 C 227.835 312.098,227.549 312.716,227.401 313.596 C 227.252 314.476,226.963 315.299,226.759 315.426 C 226.554 315.552,226.491 315.823,226.617 316.028 C 226.744 316.232,226.677 316.400,226.468 316.400 C 226.260 316.400,225.971 317.030,225.826 317.800 C 225.682 318.570,225.392 319.200,225.182 319.200 C 224.972 319.200,224.800 319.394,224.800 319.631 C 224.800 319.868,224.193 321.353,223.451 322.931 C 222.709 324.509,221.682 326.880,221.170 328.200 C 220.657 329.520,220.028 330.870,219.773 331.200 C 219.517 331.530,219.184 332.317,219.034 332.948 C 218.884 333.580,218.499 334.358,218.180 334.677 C 217.861 334.996,217.600 335.707,217.600 336.257 C 217.600 336.807,217.330 337.527,217.000 337.857 C 216.670 338.187,216.400 338.872,216.400 339.380 C 216.400 339.887,216.130 340.526,215.800 340.800 C 215.470 341.074,215.200 341.440,215.200 341.613 C 215.200 341.787,214.556 343.340,213.769 345.064 C 211.417 350.219,211.263 350.567,210.960 351.400 C 210.800 351.840,210.640 352.290,210.605 352.400 C 210.569 352.510,209.839 354.089,208.981 355.908 L 207.421 359.216 199.611 359.108 C 191.853 359.001,191.799 358.994,191.672 358.100 C 191.602 357.605,191.387 357.200,191.195 357.200 C 191.003 357.200,190.915 356.840,191.000 356.400 C 191.085 355.960,190.984 355.600,190.777 355.600 C 190.570 355.600,190.400 355.270,190.400 354.867 C 190.400 354.463,190.265 353.998,190.100 353.833 C 189.935 353.668,189.795 353.413,189.790 353.267 C 189.784 353.120,189.474 352.544,189.100 351.986 C 188.727 351.429,188.371 350.529,188.311 349.986 C 188.250 349.444,188.110 348.910,188.000 348.800 C 187.890 348.690,187.350 347.700,186.800 346.600 C 186.250 345.500,185.650 344.490,185.466 344.355 C 185.282 344.221,185.124 343.951,185.115 343.755 C 185.083 343.071,183.575 339.350,182.622 337.600 C 182.323 337.050,182.015 336.240,181.939 335.800 C 181.862 335.360,181.708 334.910,181.596 334.800 C 181.305 334.515,179.689 330.772,179.394 329.700 C 179.258 329.205,178.994 328.800,178.808 328.800 C 178.622 328.800,178.349 328.081,178.200 327.202 C 178.052 326.323,177.755 325.496,177.541 325.363 C 177.037 325.052,176.248 323.148,176.353 322.500 C 176.398 322.225,176.261 322.000,176.049 322.000 C 175.837 322.000,175.545 321.460,175.400 320.800 C 175.255 320.140,174.971 319.600,174.768 319.600 C 174.566 319.600,174.398 319.285,174.395 318.900 C 174.392 318.515,173.871 317.120,173.236 315.800 C 172.602 314.480,172.165 313.265,172.265 313.100 C 172.365 312.935,172.276 312.800,172.067 312.800 C 171.858 312.800,171.574 312.350,171.436 311.800 C 171.298 311.250,171.022 310.800,170.824 310.800 C 170.626 310.800,170.338 310.215,170.186 309.500 C 170.033 308.785,169.726 307.975,169.505 307.700 C 169.283 307.425,169.259 307.197,169.451 307.194 C 169.643 307.191,169.569 307.041,169.286 306.861 C 169.003 306.682,168.677 306.014,168.561 305.376 C 168.446 304.739,168.212 304.123,168.041 304.009 C 167.549 303.677,166.838 301.299,167.133 300.970 C 167.280 300.806,167.190 300.792,166.933 300.939 C 166.639 301.108,166.370 300.774,166.209 300.043 C 166.069 299.402,165.604 298.192,165.177 297.354 C 164.750 296.516,164.400 295.599,164.400 295.315 C 164.400 295.032,164.234 294.800,164.032 294.800 C 163.829 294.800,163.545 294.260,163.400 293.600 C 163.255 292.940,162.971 292.400,162.768 292.400 C 162.566 292.400,162.400 292.074,162.400 291.676 C 162.400 291.279,162.150 290.611,161.844 290.193 C 161.539 289.775,161.378 289.201,161.487 288.917 C 161.596 288.633,161.486 288.400,161.243 288.400 C 160.999 288.400,160.800 288.051,160.800 287.624 C 160.800 287.197,160.617 286.734,160.393 286.596 C 160.170 286.458,160.091 286.177,160.217 285.972 C 160.344 285.768,160.265 285.600,160.042 285.600 C 159.819 285.600,159.518 284.972,159.374 284.204 C 159.230 283.435,158.952 282.906,158.756 283.027 C 158.560 283.148,158.400 282.976,158.400 282.646 C 158.400 282.315,157.770 280.789,157.000 279.254 C 156.230 277.720,155.600 276.186,155.600 275.845 C 155.600 275.504,155.258 274.544,154.839 273.712 C 153.921 271.886,152.621 269.076,152.567 268.800 C 152.466 268.285,151.025 265.139,149.774 262.700 C 149.012 261.215,148.509 260.000,148.656 260.000 C 148.804 260.000,148.647 259.685,148.309 259.300 C 147.971 258.915,147.571 258.195,147.420 257.700 C 147.270 257.205,146.998 256.800,146.818 256.800 C 146.637 256.800,146.362 256.125,146.208 255.300 C 146.053 254.475,145.674 253.350,145.366 252.800 C 145.058 252.250,144.622 251.350,144.397 250.800 C 144.172 250.250,143.644 249.260,143.223 248.600 C 142.803 247.940,142.445 247.061,142.429 246.647 C 142.413 246.233,142.059 245.333,141.643 244.647 C 141.227 243.961,140.763 242.815,140.611 242.100 C 140.460 241.385,140.191 240.800,140.013 240.800 C 139.835 240.800,139.571 240.170,139.426 239.400 C 139.282 238.630,139.006 238.000,138.814 238.000 C 138.621 238.000,138.336 237.418,138.179 236.706 C 138.023 235.994,137.610 234.977,137.262 234.446 C 136.914 233.915,136.600 233.278,136.564 233.032 C 136.527 232.785,135.951 231.417,135.284 229.992 C 133.846 226.922,133.451 225.905,133.536 225.500 C 133.571 225.335,133.420 225.200,133.200 225.200 C 132.980 225.200,132.800 225.002,132.800 224.760 C 132.800 224.519,132.506 223.664,132.147 222.860 C 129.938 217.919,129.452 216.699,129.536 216.300 C 129.571 216.135,129.441 216.000,129.247 216.000 C 128.938 216.000,128.600 215.276,128.204 213.766 C 128.141 213.528,127.620 212.450,127.045 211.370 C 126.470 210.290,126.000 209.112,126.000 208.752 C 126.000 208.392,125.730 207.874,125.400 207.600 C 125.070 207.326,124.800 206.828,124.800 206.493 C 124.800 205.903,122.756 201.309,121.176 198.346 C 120.749 197.546,120.400 196.511,120.400 196.046 C 120.400 195.580,120.220 195.200,120.000 195.200 C 119.780 195.200,119.594 194.975,119.586 194.700 C 119.579 194.425,119.225 193.480,118.800 192.600 C 118.375 191.720,118.021 190.888,118.014 190.751 C 118.006 190.614,117.651 189.714,117.226 188.751 C 116.800 187.788,116.413 186.820,116.367 186.600 C 116.321 186.380,115.860 185.529,115.342 184.708 C 114.824 183.887,114.399 182.987,114.397 182.708 C 114.396 182.429,114.037 181.660,113.600 181.000 C 113.163 180.340,112.804 179.498,112.803 179.129 C 112.801 178.759,112.552 178.209,112.249 177.906 C 111.946 177.603,111.563 176.735,111.398 175.977 C 111.233 175.220,110.851 174.245,110.549 173.811 C 110.247 173.377,110.000 172.715,110.000 172.340 C 110.000 171.964,109.717 171.374,109.371 171.029 C 109.026 170.683,108.850 170.400,108.981 170.400 C 109.112 170.400,108.765 169.546,108.210 168.503 C 107.654 167.460,107.200 166.305,107.200 165.937 C 107.200 165.568,107.018 165.206,106.796 165.132 C 106.574 165.058,106.306 164.549,106.200 164.000 C 106.094 163.451,105.826 162.942,105.604 162.868 C 105.382 162.794,105.200 162.484,105.200 162.179 C 105.200 161.873,104.750 160.640,104.200 159.437 C 103.650 158.235,103.200 156.970,103.200 156.626 C 103.200 156.282,103.020 156.000,102.800 156.000 C 102.580 156.000,102.400 155.795,102.400 155.543 C 102.400 155.292,101.658 153.537,100.750 151.643 C 99.843 149.750,99.093 147.975,99.084 147.700 C 99.074 147.425,98.917 147.200,98.733 147.200 C 98.550 147.200,98.400 146.942,98.400 146.626 C 98.400 146.310,98.191 145.545,97.935 144.926 C 97.680 144.307,97.500 143.665,97.535 143.500 C 97.571 143.335,97.420 143.200,97.200 143.200 C 96.980 143.200,96.800 142.853,96.800 142.429 C 96.800 142.004,96.530 141.387,96.200 141.057 C 95.870 140.727,95.599 140.219,95.598 139.929 C 95.598 139.638,95.064 138.330,94.413 137.023 C 93.762 135.716,93.122 134.153,92.989 133.551 C 92.857 132.948,92.509 132.256,92.216 132.013 C 91.923 131.770,91.566 130.943,91.422 130.175 C 91.278 129.406,90.989 128.883,90.780 129.012 C 90.571 129.142,90.386 129.012,90.369 128.724 C 90.307 127.656,90.073 126.917,89.186 124.982 C 88.686 123.892,88.274 122.775,88.272 122.500 C 88.269 122.225,88.117 122.000,87.933 122.000 C 87.750 122.000,87.600 121.823,87.600 121.607 C 87.600 121.392,86.891 119.727,86.025 117.907 C 85.158 116.088,84.393 114.240,84.325 113.800 C 84.256 113.360,84.106 112.910,83.991 112.800 C 83.646 112.471,82.400 110.445,82.400 110.214 C 82.400 109.877,137.744 109.976,138.275 110.314 " stroke="none" fill="#f4143c" fill-rule="evenodd"></path></g></svg>